# xmcd
#
# Track frame offsets:
#	150
#	19417
#	36197
#	51969
#	68728
#	88692
#	110969
#	129098
#	147186
#	162853
#	175603
#	193435
#	207317
#
# Disc length: 3009 seconds
# Revision: 0
# Processed by: cddbd v1.5.2PL0 Copyright (c) Steve Scherf et al.
# Submitted via: dBpowerAMP V12.0
#
DISCID=bd0bbf0d
DTITLE=Michael Waugh - The Weir
DYEAR=2019
DGENRE=Country
TTITLE0=The Weir
TTITLE1=Big Things
TTITLE2=This Song Reminds Me
TTITLE3=Mary Lou
TTITLE4=Be There
TTITLE5=Search Party
TTITLE6=Down In The Valley
TTITLE7=Warragul Police
TTITLE8=Seaspray
TTITLE9=Like I Used To
TTITLE10=50 Words
TTITLE11=Born Here
TTITLE12=Last Drinks
EXTD=
EXTT0=
EXTT1=
EXTT2=
EXTT3=
EXTT4=
EXTT5=
EXTT6=
EXTT7=
EXTT8=
EXTT9=
EXTT10=
EXTT11=
EXTT12=
PLAYORDER=
